<svg width="132" height="79" viewBox="0 0 132 79" fill="none" xmlns="http://www.w3.org/2000/svg">
<path d="M26.6858 72.0724C26.668 71.5375 26.7622 71.0047 26.9623 70.5077C27.1624 70.0106 27.4641 69.5601 27.8484 69.1846C28.2328 68.809 28.6913 68.5166 29.1953 68.3257C29.6993 68.1348 30.2379 68.0496 30.7767 68.0754C31.3867 68.0393 31.9955 68.1639 32.5413 68.4366C33.0871 68.7093 33.5504 69.1204 33.8843 69.6283L33.0875 70.1888C32.8328 69.8164 32.4875 69.5137 32.0836 69.3089C31.6796 69.1041 31.2301 69.0038 30.7767 69.0172C29.9525 69.0172 29.162 69.3421 28.5792 69.9203C27.9965 70.4985 27.6691 71.2827 27.6691 72.1004C27.6691 72.9181 27.9965 73.7024 28.5792 74.2806C29.162 74.8588 29.9525 75.1836 30.7767 75.1836C31.2288 75.2 31.6776 75.1027 32.0816 74.9008C32.4857 74.6989 32.8316 74.3989 33.0875 74.0288L33.8843 74.5894C33.549 75.0962 33.0855 75.5069 32.5402 75.7803C31.9948 76.0538 31.3868 76.1805 30.7767 76.1478C30.2314 76.1727 29.6867 76.0842 29.1779 75.888C28.6691 75.6918 28.2071 75.3922 27.8219 75.0084C27.4367 74.6246 27.1367 74.1652 26.941 73.6596C26.7454 73.154 26.6585 72.6133 26.6858 72.0724Z" fill="black"/>
<path d="M35.0482 72.1117C35.0493 71.3197 35.2869 70.5458 35.731 69.8876C36.1751 69.2294 36.806 68.7166 37.5436 68.4137C38.2812 68.1109 39.0927 68.0317 39.8757 68.1861C40.6587 68.3404 41.378 68.7215 41.9429 69.2812C42.5078 69.8408 42.8928 70.554 43.0495 71.3306C43.2062 72.1072 43.1275 72.9125 42.8233 73.6447C42.5191 74.377 42.0031 75.0034 41.3404 75.4449C40.6776 75.8864 39.8979 76.1233 39.0996 76.1255C38.5628 76.1451 38.0274 76.0547 37.5273 75.86C37.0273 75.6653 36.5733 75.3704 36.1931 74.9938C35.813 74.6172 35.515 74.1669 35.318 73.6711C35.1211 73.1752 35.0292 72.6444 35.0482 72.1117ZM42.0433 72.1117C42.0157 71.5381 41.8188 70.9853 41.4772 70.5217C41.1357 70.0581 40.6645 69.7042 40.122 69.504C39.5796 69.3038 38.9898 69.266 38.4259 69.3954C37.862 69.5248 37.3487 69.8156 36.9499 70.2317C36.5511 70.6479 36.2844 71.1711 36.1827 71.7364C36.0809 72.3017 36.1485 72.8842 36.3774 73.4116C36.6064 73.9389 36.9866 74.388 37.4705 74.7031C37.9544 75.0181 38.5208 75.1852 39.0996 75.1837C39.5013 75.1908 39.8999 75.1151 40.2705 74.9612C40.6411 74.8074 40.9753 74.5787 41.2521 74.2899C41.5289 74.001 41.7422 73.6582 41.8783 73.2833C42.0145 72.9083 42.0708 72.5093 42.0433 72.1117Z" fill="black"/>
<path d="M52.6318 71.5118V76.0806H51.5583V71.5959C51.5583 69.9142 50.6825 69.0789 49.1683 69.0789C47.4732 69.0789 46.3939 70.1272 46.3939 71.9267V76.0638H45.3205V68.1483H46.3487V69.6002C46.6699 69.104 47.1193 68.7019 47.6498 68.4358C48.1803 68.1697 48.7728 68.0491 49.3661 68.0867C51.2871 68.1091 52.6318 69.219 52.6318 71.5118Z" fill="black"/>
<path d="M54.4397 75.15L54.9256 74.3148C55.7503 74.896 56.739 75.2041 57.7506 75.1949C59.2592 75.1949 59.8808 74.6904 59.8808 73.9111C59.8808 71.8538 54.7277 73.4739 54.7277 70.3571C54.7277 69.0677 55.8578 68.1147 57.8693 68.1147C58.8612 68.0963 59.8389 68.3505 60.6944 68.8491L60.2254 69.7068C59.5341 69.2482 58.7177 69.0114 57.8864 69.0285C56.4512 69.0285 55.8183 69.5891 55.8183 70.3346C55.8183 72.4592 60.9656 70.856 60.9656 73.8831C60.9656 75.2453 59.7565 76.1255 57.6886 76.1255C56.5272 76.1616 55.386 75.819 54.4397 75.15Z" fill="black"/>
<path d="M70.085 68.1483V76.0525H69.0623V74.6118C68.768 75.0955 68.3476 75.4915 67.8454 75.7579C67.3432 76.0242 66.778 76.1512 66.2091 76.1254C64.1807 76.1254 62.8529 75.0042 62.8529 72.7619V68.1483H63.9264V72.633C63.9264 74.3147 64.802 75.1668 66.3106 75.1668C67.9718 75.1668 69.0171 74.1017 69.0171 72.3023V68.1483H70.085Z" fill="black"/>
<path d="M73.0909 73.8663V64.9362H74.1647V73.7542C74.1647 74.6791 74.6052 75.1892 75.4923 75.1892C75.7417 75.1911 75.9891 75.1454 76.2212 75.0547L76.2945 75.9404C75.9831 76.0447 75.6571 76.0996 75.3284 76.103C73.8876 76.1254 73.0909 75.2733 73.0909 73.8663Z" fill="black"/>
<path d="M81.6679 75.5705C81.2018 75.9524 80.6109 76.1518 80.0068 76.1311C78.5152 76.1311 77.6847 75.2902 77.6847 73.8383V66.4667H78.7523V68.1484H81.1537V69.0453H78.7523V73.7542C78.7523 74.6792 79.2214 75.1893 80.1141 75.1893C80.5442 75.2023 80.9641 75.0587 81.2949 74.7857L81.6679 75.5705Z" fill="black"/>
<path d="M83.3743 65.6819C83.3802 65.4801 83.466 65.2888 83.6129 65.1493C83.7599 65.0098 83.9563 64.9332 84.1597 64.9363C84.2596 64.9325 84.3593 64.9484 84.453 64.9831C84.5467 65.0178 84.6324 65.0705 84.7054 65.1383C84.7785 65.206 84.8373 65.2875 84.8784 65.3779C84.9195 65.4683 84.942 65.5659 84.9449 65.665C84.9449 65.8717 84.8624 66.0699 84.7151 66.216C84.5678 66.3621 84.368 66.4442 84.1597 66.4442C83.9514 66.4442 83.7516 66.3621 83.6044 66.216C83.4571 66.0699 83.3743 65.8717 83.3743 65.665V65.6819ZM83.6173 68.1708H84.6908V76.0526H83.6173V68.1708Z" fill="black"/>
<path d="M94.9911 71.5118V76.0806H93.9176V71.5959C93.9176 69.9142 93.0417 69.0789 91.5331 69.0789C89.8381 69.0789 88.7533 70.1272 88.7533 71.9267V76.0638H87.6798V68.1483H88.708V69.6002C89.0292 69.104 89.4783 68.7019 90.0088 68.4358C90.5393 68.1697 91.1319 68.0491 91.7251 68.0867C93.6631 68.1091 94.9911 69.219 94.9911 71.5118Z" fill="black"/>
<path d="M105.291 68.1484V75.0716C105.291 77.7792 103.947 78.9956 101.336 78.9956C99.9947 79.0487 98.6793 78.6164 97.6352 77.7792L98.2002 76.9719C99.0777 77.6912 100.187 78.0733 101.325 78.0482C103.336 78.0482 104.257 77.1345 104.257 75.1893V74.1858C103.913 74.6789 103.449 75.0773 102.907 75.344C102.366 75.6106 101.765 75.7368 101.161 75.7106C100.641 75.736 100.121 75.6552 99.6337 75.4731C99.1464 75.291 98.7019 75.0116 98.3279 74.6521C97.9539 74.2926 97.6585 73.8607 97.4597 73.3832C97.2608 72.9057 97.1628 72.3928 97.1719 71.8762C97.1719 69.6339 98.867 68.0699 101.161 68.0699C101.777 68.042 102.39 68.1723 102.94 68.4483C103.491 68.7242 103.96 69.1365 104.303 69.6451V68.1484H105.291ZM104.246 71.8931C104.265 71.2986 104.105 70.7121 103.786 70.2085C103.467 69.7049 103.004 69.3071 102.456 69.0662C101.908 68.8252 101.3 68.7519 100.71 68.8558C100.12 68.9596 99.5745 69.2358 99.1434 69.6491C98.7124 70.0623 98.4152 70.5938 98.2904 71.1755C98.1655 71.7571 98.2187 72.3625 98.4427 72.9142C98.6666 73.4658 99.0512 73.9386 99.5476 74.272C100.044 74.6054 100.629 74.7842 101.229 74.7857C101.621 74.8123 102.015 74.7573 102.385 74.6242C102.755 74.4911 103.093 74.2827 103.377 74.0125C103.661 73.7423 103.885 73.4162 104.035 73.0551C104.184 72.6939 104.256 72.3058 104.246 71.9155V71.8931Z" fill="black"/>
<path d="M78.5943 53.9488L80.2893 55.8828C80.3481 55.9485 80.3806 56.0332 80.3806 56.121C80.3806 56.2089 80.3481 56.2936 80.2893 56.3593C78.7694 58.041 76.447 58.9212 73.6106 58.9324C67.5197 58.9604 63.6778 54.8738 64.1016 49.3464C64.3841 45.669 67.7516 42.0588 71.4468 41.5543C76.7919 40.8312 81.4081 43.9648 81.6171 49.6379C81.6202 49.7241 81.5923 49.8086 81.5385 49.8763C81.4847 49.9441 81.4085 49.9907 81.3233 50.0079L68.9156 52.452C68.8612 52.4627 68.8098 52.4857 68.7658 52.5191C68.7217 52.5526 68.686 52.5956 68.6615 52.6449C68.6369 52.6942 68.6243 52.7485 68.6242 52.8035C68.6242 52.8585 68.6367 52.9128 68.6612 52.9622C69.5822 54.6439 71.3619 55.5352 73.6898 55.5296C75.3101 55.5783 76.8855 54.997 78.08 53.9096C78.1162 53.8783 78.1583 53.8544 78.2039 53.8394C78.2494 53.8244 78.2975 53.8186 78.3454 53.8223C78.3932 53.8259 78.4398 53.839 78.4825 53.8607C78.5252 53.8824 78.5633 53.9124 78.5943 53.9488ZM67.9604 49.9743V50.0079L77.2832 48.186C77.3337 48.1773 77.382 48.1579 77.4242 48.1291C77.4664 48.1003 77.5019 48.0628 77.5282 48.0192C77.5545 47.9755 77.571 47.9268 77.5765 47.8762C77.582 47.8257 77.5764 47.7746 77.5602 47.7263C77.2178 46.7857 76.5802 45.9791 75.741 45.425C74.9019 44.871 73.9055 44.5989 72.8988 44.6487C69.9664 44.6599 67.9491 46.7173 67.9604 49.9743Z" fill="black"/>
<path d="M9.50968 41.1338C7.15356 41.1338 5.15913 41.9298 3.80874 43.5611V42.0644C3.81362 41.9856 3.80144 41.9066 3.77343 41.8327C3.74542 41.7588 3.70198 41.6916 3.64597 41.6355C3.58995 41.5794 3.52266 41.5357 3.44843 41.5072C3.3742 41.4787 3.29479 41.4661 3.2153 41.4702C3.19492 41.4649 3.17361 41.4649 3.15323 41.4702H3.05143L0.565405 41.9523L0.412839 41.9803C0.290625 42.0142 0.183359 42.0879 0.108535 42.1896C0.0337114 42.2913 -0.00430175 42.4151 0.000387126 42.5409V64.0953C0.0298343 64.2242 0.10114 64.34 0.203164 64.425C0.305189 64.5101 0.432325 64.5596 0.565405 64.5661H3.39049C3.46947 64.5702 3.54842 64.5577 3.62224 64.5295C3.69606 64.5014 3.76303 64.4582 3.81895 64.4027C3.87487 64.3472 3.91858 64.2807 3.94696 64.2075C3.97534 64.1342 3.98771 64.0559 3.98365 63.9775V56.3144C4.67723 57.0731 5.52985 57.672 6.48154 58.0691C7.43323 58.4661 8.46091 58.6517 9.49257 58.6128C14.5156 58.6128 18.2167 55.1596 18.2167 49.8565C18.2167 44.5534 14.5609 41.1338 9.50968 41.1338ZM9.05198 55.1988C6.15344 55.1988 3.92737 53.1191 3.92737 49.8565C3.92737 46.5939 6.15344 44.5197 9.05198 44.5197C11.9505 44.5197 14.1371 46.5995 14.1371 49.8565C14.1371 53.1134 11.9562 55.1988 9.05198 55.1988Z" fill="black"/>
<path d="M39.0147 48.6065V57.8056C39.0148 57.8817 38.9993 57.9569 38.9691 58.0268C38.939 58.0967 38.895 58.1598 38.8395 58.2123C38.784 58.2647 38.7182 58.3054 38.6464 58.3319C38.5745 58.3583 38.498 58.37 38.4215 58.3662H35.5964C35.5199 58.37 35.4434 58.3583 35.3716 58.3319C35.2997 58.3054 35.2339 58.2647 35.1785 58.2123C35.123 58.1598 35.0789 58.0967 35.0488 58.0268C35.0186 57.9569 35.0032 57.8817 35.0033 57.8056V49.1222C35.0033 46.0895 33.4889 44.6095 30.9124 44.6095C28.0421 44.6095 26.1098 46.3361 26.1098 49.7613V57.8056C26.1011 57.9564 26.0351 58.0982 25.9249 58.2023C25.8147 58.3064 25.6688 58.365 25.5166 58.3662H22.6915C22.5384 58.3665 22.391 58.3085 22.2796 58.2042C22.1682 58.1 22.1012 57.9573 22.0926 57.8056V35.9429C22.0972 35.8103 22.1464 35.6831 22.2324 35.5815C22.3184 35.4799 22.4362 35.4098 22.5671 35.3823L25.3922 34.8218C25.4087 34.8166 25.4264 34.8166 25.4429 34.8218C25.4728 34.8163 25.5035 34.8163 25.5334 34.8218C25.6129 34.8177 25.6923 34.8303 25.7665 34.8588C25.8408 34.8873 25.9081 34.931 25.9641 34.9871C26.0201 35.0432 26.0635 35.1104 26.0915 35.1843C26.1196 35.2582 26.1317 35.3372 26.1269 35.416V43.337C27.449 41.9356 29.4829 41.1676 31.8672 41.1676C35.958 41.1339 39.0147 43.4828 39.0147 48.6065Z" fill="black"/>
<path d="M51.044 41.1338C45.7611 41.1338 41.8964 44.7384 41.8964 49.8509C41.8964 54.9634 45.7611 58.6128 51.044 58.6128C56.3269 58.6128 60.2313 54.969 60.2313 49.8509C60.2313 44.7327 56.3721 41.1338 51.044 41.1338ZM51.044 55.1988C48.1455 55.1988 45.9589 53.1191 45.9589 49.8509C45.9589 46.5827 48.1511 44.5197 51.044 44.5197C53.9369 44.5197 56.1689 46.5939 56.1689 49.8509C56.1689 53.1078 53.9765 55.1988 51.044 55.1988Z" fill="black"/>
<path d="M102.393 48.6065V57.8057C102.393 57.8817 102.378 57.957 102.347 58.0269C102.317 58.0968 102.273 58.1599 102.218 58.2123C102.162 58.2647 102.096 58.3054 102.024 58.3319C101.953 58.3584 101.876 58.3701 101.8 58.3663H98.9745C98.8975 58.3708 98.8205 58.3597 98.748 58.3336C98.6754 58.3075 98.609 58.267 98.5529 58.2144C98.4968 58.1619 98.4521 58.0986 98.4216 58.0283C98.3911 57.958 98.3754 57.8822 98.3755 57.8057V49.1222C98.3755 46.0895 96.8669 44.6096 94.2904 44.6096C91.4202 44.6096 89.4878 46.3362 89.4878 49.7613V57.8057C89.4879 57.8817 89.4724 57.957 89.4423 58.0269C89.4121 58.0968 89.3681 58.1599 89.3126 58.2123C89.2571 58.2647 89.1913 58.3054 89.1195 58.3319C89.0476 58.3584 88.9712 58.3701 88.8946 58.3663H86.0695C85.993 58.3701 85.9165 58.3584 85.8447 58.3319C85.7729 58.3054 85.7071 58.2647 85.6516 58.2123C85.5961 58.1599 85.5521 58.0968 85.5219 58.0269C85.4918 57.957 85.476 57.8817 85.4761 57.8057V42.541C85.4786 42.4169 85.5196 42.2965 85.5934 42.1963C85.6672 42.096 85.7705 42.0206 85.8888 41.9804H86.0017C86.0201 41.9751 86.0398 41.9751 86.0582 41.9804L88.5274 41.4983H88.629C88.6512 41.4924 88.6746 41.4924 88.6968 41.4983C88.7734 41.4945 88.8498 41.5062 88.9217 41.5327C88.9935 41.5591 89.0593 41.5998 89.1148 41.6523C89.1703 41.7047 89.2143 41.7678 89.2445 41.8377C89.2746 41.9076 89.2901 41.9829 89.29 42.0589V43.5613C90.6121 41.9916 92.6801 41.162 95.2227 41.162C99.3134 41.134 102.393 43.4828 102.393 48.6065Z" fill="black"/>
<path d="M111.354 41.6609C111.482 41.692 111.597 41.7633 111.682 41.8642C111.766 41.9652 111.816 42.0905 111.823 42.2215V58.114C111.822 58.2696 111.758 58.4185 111.648 58.5286C111.537 58.6386 111.386 58.7011 111.23 58.7026H108.404C108.248 58.7011 108.098 58.6386 107.987 58.5286C107.876 58.4185 107.813 58.2696 107.811 58.114V42.2439C107.818 42.1118 107.868 41.9856 107.953 41.8844C108.039 41.7831 108.156 41.7125 108.286 41.6833H111.36L111.354 41.6609Z" fill="black"/>
<path d="M132 57.8056C131.991 57.9564 131.925 58.0982 131.815 58.2023C131.705 58.3064 131.559 58.365 131.407 58.3662H128.367C128.27 58.3659 128.175 58.3422 128.089 58.2973C128.003 58.2524 127.93 58.1876 127.875 58.1083L123.949 52.8725C123.929 52.8354 123.904 52.8014 123.875 52.7716C123.846 52.7399 123.81 52.7145 123.77 52.6972C123.73 52.6798 123.687 52.6708 123.643 52.6707C123.6 52.6714 123.557 52.6808 123.517 52.6981C123.478 52.7154 123.442 52.7404 123.412 52.7716C123.382 52.8002 123.359 52.8345 123.344 52.8725L119.389 58.1083C119.333 58.1872 119.26 58.2518 119.175 58.2967C119.089 58.3415 118.994 58.3654 118.897 58.3662H115.959C115.806 58.3665 115.659 58.3085 115.547 58.2042C115.436 58.1 115.369 57.9573 115.36 57.8056C115.364 57.6883 115.399 57.5741 115.462 57.4749C115.483 57.4423 115.507 57.4122 115.535 57.3852L121.27 49.9519C121.298 49.9228 121.323 49.8909 121.344 49.8566C121.349 49.8119 121.349 49.7668 121.344 49.722C121.349 49.6792 121.349 49.6359 121.344 49.5931C121.325 49.556 121.3 49.522 121.27 49.4922L115.824 42.3616C115.797 42.3334 115.772 42.3034 115.75 42.2719C115.688 42.172 115.653 42.0582 115.648 41.9412C115.648 41.8646 115.664 41.7889 115.694 41.7186C115.725 41.6483 115.769 41.5849 115.826 41.5324C115.882 41.4799 115.948 41.4393 116.021 41.4132C116.093 41.3871 116.17 41.376 116.247 41.3806H119.225C119.383 41.3813 119.534 41.4414 119.649 41.5487C119.675 41.5758 119.698 41.6059 119.716 41.6384L123.446 46.566C123.46 46.6026 123.483 46.6353 123.513 46.6613C123.577 46.7184 123.66 46.75 123.745 46.75C123.831 46.75 123.913 46.7184 123.977 46.6613C124.003 46.6309 124.027 46.5991 124.05 46.566L127.774 41.6384C127.793 41.6059 127.815 41.5758 127.842 41.5487C127.956 41.4414 128.108 41.3813 128.265 41.3806H131.09C131.24 41.3806 131.384 41.4396 131.49 41.5448C131.596 41.6499 131.655 41.7925 131.655 41.9412C131.655 42.0589 131.619 42.1738 131.554 42.2719C131.531 42.3034 131.507 42.3334 131.48 42.3616L126.005 49.4642C125.972 49.489 125.947 49.5247 125.937 49.5651C125.915 49.6045 125.903 49.6488 125.903 49.694C125.903 49.7392 125.915 49.7836 125.937 49.8229C125.937 49.8622 125.977 49.8902 126.005 49.9238L131.774 57.4132C131.813 57.4424 131.844 57.4809 131.864 57.5253C131.937 57.6031 131.984 57.7008 132 57.8056Z" fill="black"/>
<path d="M108.38 39.2895L111.889 38.6027C112.076 38.5661 112.197 38.3863 112.161 38.201L111.64 35.5831C111.603 35.3978 111.422 35.2772 111.235 35.3138L107.726 36.0006C107.539 36.0372 107.418 36.217 107.455 36.4023L107.975 39.0202C108.012 39.2055 108.193 39.3261 108.38 39.2895Z" fill="#1F54FB"/>
<path d="M111.484 0.0798729L91.0897 4.07161C88.8058 4.51863 87.3196 6.71793 87.7702 8.98388L90.6146 23.2889C91.0651 25.5549 93.2818 27.0294 95.5657 26.5824L115.96 22.5906C118.244 22.1436 119.73 19.9443 119.279 17.6784L116.435 3.37333C115.984 1.10738 113.767 -0.367154 111.484 0.0798729Z" fill="#1F54FB"/>
<path d="M73.9361 0.0798729L53.5422 4.07161C51.2583 4.51863 49.7721 6.71793 50.2227 8.98388L53.0671 23.2889C53.5177 25.5549 55.7344 27.0294 58.0183 26.5824L78.4122 22.5906C80.6961 22.1436 82.1823 19.9443 81.7317 17.6784L78.8873 3.37333C78.4367 1.10738 76.22 -0.367154 73.9361 0.0798729Z" fill="#1F54FB"/>
<path d="M33.4643 0.16792L13.093 4.08645C10.8117 4.52528 9.32086 6.71589 9.76316 8.97932L12.5554 23.2684C12.9977 25.5319 15.2056 27.011 17.487 26.5722L37.8583 22.6537C40.1396 22.2148 41.6304 20.0242 41.1881 17.7608L38.3959 3.47166C37.9536 1.20823 35.7456 -0.270908 33.4643 0.16792Z" fill="#1F54FB"/>
</svg>
