<svg width="923" height="131" viewBox="0 0 923 131" fill="none" xmlns="http://www.w3.org/2000/svg">
<path d="M206.079 -106.287L29.4473 -70.6549C9.66669 -66.6645 -3.20506 -47.0325 0.69726 -26.8055L25.3328 100.888C29.2351 121.115 48.4337 134.277 68.2143 130.287L244.846 94.6549C264.627 90.6645 277.498 71.0325 273.596 50.8055L248.961 -76.888C245.058 -97.115 225.86 -110.277 206.079 -106.287Z" fill="#1F54FB" fill-opacity="0.08"/>
<path d="M530.432 -106.287L353.801 -70.6549C334.02 -66.6645 321.148 -47.0325 325.051 -26.8055L349.686 100.888C353.588 121.115 372.787 134.277 392.568 130.287L569.199 94.6549C588.98 90.6645 601.852 71.0325 597.949 50.8055L573.314 -76.888C569.412 -97.115 550.213 -110.277 530.432 -106.287Z" fill="#1F54FB" fill-opacity="0.08"/>
<path d="M854.786 -106.287L678.154 -70.6549C658.373 -66.6645 645.502 -47.0325 649.404 -26.8055L674.039 100.888C677.942 121.115 697.14 134.277 716.921 130.287L893.553 94.6549C913.333 90.6645 926.205 71.0325 922.303 50.8055L897.667 -76.888C893.765 -97.115 874.566 -110.277 854.786 -106.287Z" fill="#1F54FB" fill-opacity="0.08"/>
</svg>
