<svg width="923" height="187" viewBox="0 0 923 187" fill="none" xmlns="http://www.w3.org/2000/svg">
<path d="M206.079 0.712984L29.4473 36.3451C9.66669 40.3355 -3.20506 59.9675 0.69726 80.1945L25.3328 207.888C29.2351 228.115 48.4337 241.277 68.2143 237.287L244.846 201.655C264.627 197.665 277.498 178.033 273.596 157.806L248.961 30.112C245.058 9.88503 225.86 -3.27739 206.079 0.712984Z" fill="#1F54FB" fill-opacity="0.08"/>
<path d="M530.432 0.712984L353.801 36.3451C334.02 40.3355 321.148 59.9675 325.051 80.1945L349.686 207.888C353.588 228.115 372.787 241.277 392.568 237.287L569.199 201.655C588.98 197.665 601.852 178.033 597.949 157.806L573.314 30.112C569.412 9.88503 550.213 -3.27739 530.432 0.712984Z" fill="#1F54FB" fill-opacity="0.08"/>
<path d="M854.786 0.712984L678.154 36.3451C658.373 40.3355 645.502 59.9675 649.404 80.1945L674.039 207.888C677.942 228.115 697.14 241.277 716.921 237.287L893.553 201.655C913.333 197.665 926.205 178.033 922.303 157.806L897.667 30.112C893.765 9.88503 874.566 -3.27739 854.786 0.712984Z" fill="#1F54FB" fill-opacity="0.08"/>
</svg>
